<?xml version="1.0" encoding="UTF-8"?>
<svg width="46px" height="46px" viewBox="0 0 46 46" version="1.1" xmlns="http://www.w3.org/2000/svg" xmlns:xlink="http://www.w3.org/1999/xlink">
    <!-- Generator: Sketch 51.2 (57519) - http://www.bohemiancoding.com/sketch -->
    <title>Group 2</title>
    <desc>Created with Sketch.</desc>
    <defs>
        <circle id="path-1" cx="21" cy="21" r="21"></circle>
        <filter x="-8.3%" y="-6.0%" width="116.7%" height="116.7%" filterUnits="objectBoundingBox" id="filter-2">
            <feOffset dx="0" dy="1" in="SourceAlpha" result="shadowOffsetOuter1"></feOffset>
            <feGaussianBlur stdDeviation="1" in="shadowOffsetOuter1" result="shadowBlurOuter1"></feGaussianBlur>
            <feComposite in="shadowBlurOuter1" in2="SourceAlpha" operator="out" result="shadowBlurOuter1"></feComposite>
            <feColorMatrix values="0 0 0 0 0   0 0 0 0 0   0 0 0 0 0  0 0 0 0.2 0" type="matrix" in="shadowBlurOuter1"></feColorMatrix>
        </filter>
    </defs>
    <g id="Сортуй-iOS" stroke="none" stroke-width="1" fill="none" fill-rule="evenodd">
        <g id="4-1-3-Map" transform="translate(-143.000000, -166.000000)" fill-rule="nonzero">
            <g id="Group" transform="translate(-536.000000, -214.000000)">
                <g id="Group-2" transform="translate(681.000000, 381.000000)">
                    <g id="Oval-3">
                        <use fill="black" fill-opacity="1" filter="url(#filter-2)" xlink:href="#path-1"></use>
                        <circle stroke="#FFFFFF" stroke-width="2" stroke-linejoin="square" fill="#0F998B" fill-rule="evenodd" cx="21" cy="21" r="20"></circle>
                    </g>
                    <path d="M26.2141758,23.4116856 C28.0269497,22.3533193 29.0997919,21.5536937 29.2821259,21.2378807 C29.633744,20.6288579 29.4250782,19.8501035 28.8160578,19.498484 L25.1402946,17.3762727 C24.5312742,17.0246532 24.3226084,16.2458988 24.6742265,15.636876 C25.0258445,15.0278532 25.8045959,14.8191866 26.4136163,15.1708061 L30.0893795,17.2930173 C31.9164407,18.3478758 32.5424381,20.6841391 31.4875839,22.5112075 C30.9980628,23.3590862 29.7155708,24.3183937 27.4875251,25.6172 L28.0653357,26.6180014 C28.1356594,26.739806 28.0939262,26.8955568 27.9721221,26.9658807 C27.9187008,26.9967237 27.8559005,27.0071282 27.7953867,26.9951615 L24.2053097,26.2852208 C24.0673343,26.257936 23.9776018,26.1239658 24.0048864,25.9859899 C24.0070797,25.9748988 24.0100091,25.963966 24.0136552,25.9532642 L25.1938694,22.4891836 C25.2392279,22.3560506 25.3839234,22.2848954 25.5170559,22.3302541 C25.5754457,22.3501477 25.6246301,22.3905585 25.6554729,22.44398 L26.2141758,23.4116856 Z M19.7359188,14.9677909 C18.039066,13.9647012 16.8951616,13.4545455 16.5557195,13.4545455 C15.9011296,13.4545455 15.3704797,14.0040142 15.3704797,14.6818182 L15.3704797,18.7727273 C15.3704797,19.4505313 14.8398297,20 14.1852398,20 C13.53065,20 13,19.4505313 13,18.7727273 L13,14.6818182 C13,12.6484061 14.5919499,11 16.5557195,11 C17.4670365,11 18.8372366,11.6081984 20.9211842,12.8420462 L21.4590249,11.8774421 C21.5244839,11.760043 21.6694602,11.7198191 21.7828385,11.7875995 C21.8325644,11.8173269 21.8701797,11.8647326 21.888697,11.9210107 L22.9872701,15.2598015 C23.0294909,15.3881193 22.9632581,15.527582 22.8393351,15.5713001 C22.8293736,15.5748143 22.8191971,15.5776378 22.8088733,15.5797518 L19.4671394,16.2640152 C19.3387085,16.2903131 19.2140061,16.2038257 19.1886089,16.0708401 C19.1774701,16.0125148 19.1871548,15.9519856 19.2158641,15.9004963 L19.7359188,14.9677909 Z M15.7423373,24.2022268 C15.7519666,26.2619296 15.8995726,27.5659141 16.0720159,27.8758001 C16.4045604,28.4733931 17.1410683,28.6781435 17.7170524,28.3331231 L21.1934235,26.2507404 C21.7694075,25.9057199 22.5059154,26.1104704 22.83846,26.7080633 C23.1710045,27.3056563 22.9736578,28.0697955 22.3976738,28.4148159 L18.9213026,30.4971986 C17.1933505,31.53226 14.9838268,30.9180086 13.9861932,29.1252297 C13.5232262,28.2932636 13.3439723,26.7327812 13.3337846,24.2022268 L12.2408501,24.2022268 C12.1078322,24.2022268 12,24.0903491 12,23.9523409 C12,23.8918127 12.0211751,23.8333419 12.0595919,23.7877899 L14.3387315,21.0853383 C14.4263244,20.9814766 14.5784844,20.970952 14.6785906,21.061831 C14.6866375,21.0691363 14.6942067,21.0769894 14.7012478,21.0853383 L16.9803874,23.7877899 C17.0679803,23.8916516 17.0578363,24.0495202 16.9577302,24.1403992 C16.9138253,24.1802573 16.8574688,24.2022268 16.7991293,24.2022268 L15.7423373,24.2022268 Z" id="Combined-Shape" fill="#FFFFFF"></path>
                </g>
            </g>
        </g>
    </g>
</svg>