<?xml version="1.0" encoding="UTF-8"?>
<svg width="46px" height="46px" viewBox="0 0 46 46" version="1.1" xmlns="http://www.w3.org/2000/svg" xmlns:xlink="http://www.w3.org/1999/xlink">
    <!-- Generator: Sketch 52.2 (67145) - http://www.bohemiancoding.com/sketch -->
    <title>Group 42</title>
    <desc>Created with Sketch.</desc>
    <defs>
        <circle id="path-1" cx="21" cy="21" r="21"></circle>
        <filter x="-8.3%" y="-6.0%" width="116.7%" height="116.7%" filterUnits="objectBoundingBox" id="filter-2">
            <feOffset dx="0" dy="1" in="SourceAlpha" result="shadowOffsetOuter1"></feOffset>
            <feGaussianBlur stdDeviation="1" in="shadowOffsetOuter1" result="shadowBlurOuter1"></feGaussianBlur>
            <feComposite in="shadowBlurOuter1" in2="SourceAlpha" operator="out" result="shadowBlurOuter1"></feComposite>
            <feColorMatrix values="0 0 0 0 0   0 0 0 0 0   0 0 0 0 0  0 0 0 0.2 0" type="matrix" in="shadowBlurOuter1"></feColorMatrix>
        </filter>
    </defs>
    <g id="Сортуй-iOS" stroke="none" stroke-width="1" fill="none" fill-rule="evenodd">
        <g id="Group-42" transform="translate(2.000000, 1.000000)" fill-rule="nonzero">
            <g id="Group-39">
                <g id="Oval-3">
                    <use fill="black" fill-opacity="1" filter="url(#filter-2)" xlink:href="#path-1"></use>
                    <circle stroke="#FFFFFF" stroke-width="2" stroke-linejoin="square" fill="#0F998B" fill-rule="evenodd" cx="21" cy="21" r="20"></circle>
                </g>
                <g id="Group-40" transform="translate(8.000000, 13.000000)">
                    <path d="M18,13 L18,16 L5,16 L5,14.3333333 L3.50761597,14.0846027 C3.18905896,14.0315098 2.86447111,14.1355289 2.6361102,14.3638898 L2.5,14.5 C2.30096784,14.6990322 1.97827294,14.6990322 1.77924078,14.5 C1.74050642,14.4612656 1.70826999,14.41654 1.68377223,14.3675445 L0.239341453,11.4786829 C0.0898141616,11.1796283 0.0996398661,10.8256302 0.265525502,10.5353304 L3.71207939,4.50386106 C3.89012225,4.19228606 4.22146569,4 4.58032254,4 L8,4 L8,1 C8,0.44771525 8.44771525,-9.75118452e-13 9,-9.75219905e-13 L24,-9.75219905e-13 C24.5522847,-9.75321358e-13 25,0.44771525 25,1 L25,12 C25,12.5522847 24.5522847,13 24,13 L18,13 Z M5.30901699,6 C5.11963097,6 4.94649941,6.10700119 4.8618034,6.2763932 L3.3618034,9.2763932 C3.32708954,9.34582092 3.30901699,9.42237745 3.30901699,9.5 C3.30901699,9.77614237 3.53287462,10 3.80901699,10 L7.5,10 C7.77614237,10 8,9.77614237 8,9.5 L8,6.5 C8,6.22385763 7.77614237,6 7.5,6 L5.30901699,6 Z" id="Combined-Shape" fill="#FFFFFF"></path>
                    <circle id="Oval" stroke="#0F998B" fill="#FFFFFF" cx="5" cy="15" r="2.5"></circle>
                    <circle id="Oval" stroke="#0F998B" fill="#FFFFFF" cx="20" cy="15" r="2.5"></circle>
                    <path d="M19.1070879,8.20584282 C20.0134748,7.67665963 20.549896,7.27684686 20.641063,7.11894037 C20.816872,6.81442897 20.7125391,6.42505175 20.4080289,6.24924201 L18.5701473,5.18813636 C18.2656371,5.01232662 18.1613042,4.6229494 18.3371132,4.318438 C18.5129223,4.0139266 18.902298,3.90959329 19.2068082,4.08540303 L21.0446898,5.14650867 C21.9582204,5.67393789 22.2712191,6.84206955 21.7437919,7.75560376 C21.4990314,8.17954311 20.8577854,8.65919685 19.7437625,9.3086 L20.0326679,9.80900069 C20.0678297,9.86990298 20.0469631,9.94777842 19.9860611,9.98294037 C19.9593504,9.99836184 19.9279502,10.0035641 19.8976934,9.99758076 L18.1026548,9.64261038 C18.0336672,9.62896801 17.9888009,9.5619829 18.0024432,9.49299496 C18.0035398,9.48744939 18.0050045,9.48198301 18.0068276,9.47663209 L18.5969347,7.74459178 C18.619614,7.67802528 18.6919617,7.64244771 18.758528,7.66512704 C18.7877228,7.67507383 18.8123151,7.69527925 18.8277365,7.72199 L19.1070879,8.20584282 Z M15.8679594,3.98389546 C15.019533,3.48235058 14.4475808,3.22727273 14.2778598,3.22727273 C13.9505648,3.22727273 13.6852398,3.50200709 13.6852398,3.84090909 L13.6852398,5.88636364 C13.6852398,6.22526564 13.4199149,6.5 13.0926199,6.5 C12.765325,6.5 12.5,6.22526564 12.5,5.88636364 L12.5,3.84090909 C12.5,2.82420307 13.2959749,2 14.2778598,2 C14.7335183,2 15.4186183,2.30409919 16.4605921,2.92102312 L16.7295125,2.43872106 C16.762242,2.38002151 16.8347301,2.35990956 16.8914192,2.39379976 C16.9162822,2.40866345 16.9350898,2.43236631 16.9443485,2.46050537 L17.493635,4.12990075 C17.5147454,4.19405965 17.4816291,4.26379098 17.4196675,4.28565004 C17.4146868,4.28740717 17.4095986,4.28881891 17.4044366,4.28987588 L15.7335697,4.6320076 C15.6693542,4.64515654 15.6070031,4.60191283 15.5943045,4.53542007 C15.5887351,4.50625741 15.5935774,4.47599282 15.607932,4.45024815 L15.8679594,3.98389546 Z M13.8711686,8.60111341 C13.8759833,9.63096481 13.9497863,10.2829571 14.0360079,10.4379 C14.2022802,10.7366965 14.5705342,10.8390718 14.8585262,10.6665615 L16.5967117,9.62537018 C16.8847038,9.45285995 17.2529577,9.55523519 17.41923,9.85403167 C17.5855023,10.1528282 17.4868289,10.5348977 17.1988369,10.707408 L15.4606513,11.7485993 C14.5966753,12.26613 13.4919134,11.9590043 12.9930966,11.0626149 C12.7616131,10.6466318 12.6719861,9.86639062 12.6668923,8.60111341 L12.120425,8.60111341 C12.0539161,8.60111341 12,8.54517454 12,8.47617045 C12,8.44590637 12.0105876,8.41667097 12.029796,8.39389493 L13.1693658,7.04266916 C13.2131622,6.99073829 13.2892422,6.985476 13.3392953,7.03091551 C13.3433188,7.03456815 13.3471034,7.03849472 13.3506239,7.04266916 L14.4901937,8.39389493 C14.5339901,8.4458258 14.5289181,8.5247601 14.4788651,8.57019961 C14.4569126,8.59012865 14.4287344,8.60111341 14.3995646,8.60111341 L13.8711686,8.60111341 Z" id="Combined-Shape" fill="#0F998B"></path>
                </g>
            </g>
        </g>
    </g>
</svg>